<?xml version="1.0" encoding="UTF-8" standalone="no"?>
<!DOCTYPE svg PUBLIC "-//W3C//DTD SVG 1.1//EN"
 "http://www.w3.org/Graphics/SVG/1.1/DTD/svg11.dtd">
<!-- Generated by graphviz version 2.43.0 (0)
 -->
<!-- Title: %3 Pages: 1 -->
<svg width="152pt" height="646pt"
 viewBox="0.00 0.00 152.29 645.67" xmlns="http://www.w3.org/2000/svg" xmlns:xlink="http://www.w3.org/1999/xlink">
<g id="graph0" class="graph" transform="scale(1 1) rotate(0) translate(4 641.67)">
<title>%3</title>
<polygon fill="white" stroke="transparent" points="-4,4 -4,-641.67 148.29,-641.67 148.29,4 -4,4"/>
<!-- 6392465832295278471 -->
<g id="node1" class="node">
<title>6392465832295278471</title>
<ellipse fill="none" stroke="black" cx="72.14" cy="-324.43" rx="72.29" ry="72.29"/>
<text text-anchor="middle" x="72.14" y="-320.73" font-family="Helvetica,sans-Serif" font-size="14.00">cmd_wrapper</text>
</g>
<!-- &#45;1961607559159001633 -->
<g id="node2" class="node">
<title>&#45;1961607559159001633</title>
<polygon fill="none" stroke="black" points="99.14,-468.57 45.14,-468.57 45.14,-432.57 99.14,-432.57 99.14,-468.57"/>
</g>
<!-- 6392465832295278471&#45;&gt;&#45;1961607559159001633 -->
<g id="edge1" class="edge">
<title>6392465832295278471&#45;&gt;&#45;1961607559159001633</title>
<path fill="none" stroke="black" d="M72.14,-396.93C72.14,-405.87 72.14,-414.54 72.14,-422.18"/>
<polygon fill="black" stroke="black" points="68.64,-422.21 72.14,-432.21 75.64,-422.21 68.64,-422.21"/>
</g>
<!-- &#45;6966894061075054664 -->
<g id="node5" class="node">
<title>&#45;6966894061075054664</title>
<ellipse fill="none" stroke="black" cx="72.14" cy="-535.12" rx="30.59" ry="30.59"/>
<text text-anchor="middle" x="72.14" y="-531.42" font-family="Helvetica,sans-Serif" font-size="14.00">knot</text>
</g>
<!-- &#45;1961607559159001633&#45;&gt;&#45;6966894061075054664 -->
<g id="edge5" class="edge">
<title>&#45;1961607559159001633&#45;&gt;&#45;6966894061075054664</title>
<path fill="none" stroke="black" d="M72.14,-468.68C72.14,-476.16 72.14,-485.27 72.14,-494.3"/>
<polygon fill="black" stroke="black" points="68.64,-494.35 72.14,-504.35 75.64,-494.35 68.64,-494.35"/>
</g>
<!-- 2933459312701320997 -->
<g id="node3" class="node">
<title>2933459312701320997</title>
<polygon fill="none" stroke="black" points="99.14,-216.29 45.14,-216.29 45.14,-180.29 99.14,-180.29 99.14,-216.29"/>
</g>
<!-- 2933459312701320997&#45;&gt;6392465832295278471 -->
<g id="edge2" class="edge">
<title>2933459312701320997&#45;&gt;6392465832295278471</title>
<path fill="none" stroke="black" d="M72.14,-216.29C72.14,-223.43 72.14,-232.31 72.14,-241.87"/>
<polygon fill="black" stroke="black" points="68.64,-242.04 72.14,-252.04 75.64,-242.04 68.64,-242.04"/>
</g>
<!-- &#45;1278432601434838407 -->
<g id="node4" class="node">
<title>&#45;1278432601434838407</title>
<ellipse fill="none" stroke="black" cx="72.14" cy="-72.14" rx="72.29" ry="72.29"/>
<text text-anchor="middle" x="72.14" y="-68.44" font-family="Helvetica,sans-Serif" font-size="14.00">cmd_wrapper</text>
</g>
<!-- &#45;1278432601434838407&#45;&gt;2933459312701320997 -->
<g id="edge3" class="edge">
<title>&#45;1278432601434838407&#45;&gt;2933459312701320997</title>
<path fill="none" stroke="black" d="M72.14,-144.64C72.14,-153.58 72.14,-162.25 72.14,-169.89"/>
<polygon fill="black" stroke="black" points="68.64,-169.92 72.14,-179.92 75.64,-169.92 68.64,-169.92"/>
</g>
<!-- 8011264483364686881 -->
<g id="node6" class="node">
<title>8011264483364686881</title>
<polygon fill="none" stroke="black" points="99.14,-637.67 45.14,-637.67 45.14,-601.67 99.14,-601.67 99.14,-637.67"/>
</g>
<!-- &#45;6966894061075054664&#45;&gt;8011264483364686881 -->
<g id="edge4" class="edge">
<title>&#45;6966894061075054664&#45;&gt;8011264483364686881</title>
<path fill="none" stroke="black" d="M72.14,-565.92C72.14,-574.27 72.14,-583.3 72.14,-591.49"/>
<polygon fill="black" stroke="black" points="68.64,-591.64 72.14,-601.64 75.64,-591.64 68.64,-591.64"/>
</g>
</g>
</svg>
