<?xml version="1.0" encoding="UTF-8" standalone="no"?>
<!DOCTYPE svg PUBLIC "-//W3C//DTD SVG 1.1//EN"
 "http://www.w3.org/Graphics/SVG/1.1/DTD/svg11.dtd">
<!-- Generated by graphviz version 2.43.0 (0)
 -->
<!-- Title: %3 Pages: 1 -->
<svg width="314pt" height="646pt"
 viewBox="0.00 0.00 314.29 645.67" xmlns="http://www.w3.org/2000/svg" xmlns:xlink="http://www.w3.org/1999/xlink">
<g id="graph0" class="graph" transform="scale(1 1) rotate(0) translate(4 641.67)">
<title>%3</title>
<polygon fill="white" stroke="transparent" points="-4,4 -4,-641.67 310.29,-641.67 310.29,4 -4,4"/>
<!-- &#45;272491263633714157 -->
<g id="node1" class="node">
<title>&#45;272491263633714157</title>
<ellipse fill="none" stroke="black" cx="152.14" cy="-324.43" rx="72.29" ry="72.29"/>
<text text-anchor="middle" x="152.14" y="-320.73" font-family="Helvetica,sans-Serif" font-size="14.00">cmd_wrapper</text>
</g>
<!-- &#45;9078277945048114055 -->
<g id="node2" class="node">
<title>&#45;9078277945048114055</title>
<polygon fill="none" stroke="black" points="179.14,-468.57 125.14,-468.57 125.14,-432.57 179.14,-432.57 179.14,-468.57"/>
</g>
<!-- &#45;272491263633714157&#45;&gt;&#45;9078277945048114055 -->
<g id="edge1" class="edge">
<title>&#45;272491263633714157&#45;&gt;&#45;9078277945048114055</title>
<path fill="none" stroke="black" d="M152.14,-396.93C152.14,-405.87 152.14,-414.54 152.14,-422.18"/>
<polygon fill="black" stroke="black" points="148.64,-422.21 152.14,-432.21 155.64,-422.21 148.64,-422.21"/>
</g>
<!-- &#45;5147639951402654799 -->
<g id="node7" class="node">
<title>&#45;5147639951402654799</title>
<ellipse fill="none" stroke="black" cx="152.14" cy="-535.12" rx="30.59" ry="30.59"/>
<text text-anchor="middle" x="152.14" y="-531.42" font-family="Helvetica,sans-Serif" font-size="14.00">knot</text>
</g>
<!-- &#45;9078277945048114055&#45;&gt;&#45;5147639951402654799 -->
<g id="edge7" class="edge">
<title>&#45;9078277945048114055&#45;&gt;&#45;5147639951402654799</title>
<path fill="none" stroke="black" d="M152.14,-468.68C152.14,-476.16 152.14,-485.27 152.14,-494.3"/>
<polygon fill="black" stroke="black" points="148.64,-494.35 152.14,-504.35 155.64,-494.35 148.64,-494.35"/>
</g>
<!-- &#45;3017136226897042279 -->
<g id="node3" class="node">
<title>&#45;3017136226897042279</title>
<polygon fill="none" stroke="black" points="121.14,-216.29 67.14,-216.29 67.14,-180.29 121.14,-180.29 121.14,-216.29"/>
</g>
<!-- &#45;3017136226897042279&#45;&gt;&#45;272491263633714157 -->
<g id="edge2" class="edge">
<title>&#45;3017136226897042279&#45;&gt;&#45;272491263633714157</title>
<path fill="none" stroke="black" d="M102.09,-216.29C106.31,-225.32 111.82,-237.11 117.63,-249.56"/>
<polygon fill="black" stroke="black" points="114.5,-251.13 121.91,-258.71 120.85,-248.17 114.5,-251.13"/>
</g>
<!-- 8262584294410019126 -->
<g id="node4" class="node">
<title>8262584294410019126</title>
<polygon fill="none" stroke="black" points="238.14,-216.29 184.14,-216.29 184.14,-180.29 238.14,-180.29 238.14,-216.29"/>
</g>
<!-- 8262584294410019126&#45;&gt;&#45;272491263633714157 -->
<g id="edge3" class="edge">
<title>8262584294410019126&#45;&gt;&#45;272491263633714157</title>
<path fill="none" stroke="black" d="M203.06,-216.29C198.75,-225.37 193.1,-237.25 187.15,-249.78"/>
<polygon fill="black" stroke="black" points="183.9,-248.46 182.77,-258.99 190.22,-251.46 183.9,-248.46"/>
</g>
<!-- 5286222002036322311 -->
<g id="node5" class="node">
<title>5286222002036322311</title>
<ellipse fill="none" stroke="black" cx="72.14" cy="-72.14" rx="72.29" ry="72.29"/>
<text text-anchor="middle" x="72.14" y="-68.44" font-family="Helvetica,sans-Serif" font-size="14.00">cmd_wrapper</text>
</g>
<!-- 5286222002036322311&#45;&gt;&#45;3017136226897042279 -->
<g id="edge4" class="edge">
<title>5286222002036322311&#45;&gt;&#45;3017136226897042279</title>
<path fill="none" stroke="black" d="M84.62,-143.56C86.28,-152.89 87.88,-161.96 89.29,-169.92"/>
<polygon fill="black" stroke="black" points="85.89,-170.75 91.08,-179.99 92.78,-169.53 85.89,-170.75"/>
</g>
<!-- 6389032983175115967 -->
<g id="node6" class="node">
<title>6389032983175115967</title>
<ellipse fill="none" stroke="black" cx="234.14" cy="-72.14" rx="72.29" ry="72.29"/>
<text text-anchor="middle" x="234.14" y="-68.44" font-family="Helvetica,sans-Serif" font-size="14.00">cmd_wrapper</text>
</g>
<!-- 6389032983175115967&#45;&gt;8262584294410019126 -->
<g id="edge5" class="edge">
<title>6389032983175115967&#45;&gt;8262584294410019126</title>
<path fill="none" stroke="black" d="M221.16,-143.2C219.41,-152.68 217.7,-161.91 216.2,-169.98"/>
<polygon fill="black" stroke="black" points="212.75,-169.38 214.37,-179.85 219.64,-170.66 212.75,-169.38"/>
</g>
<!-- &#45;617926743591804607 -->
<g id="node8" class="node">
<title>&#45;617926743591804607</title>
<polygon fill="none" stroke="black" points="179.14,-637.67 125.14,-637.67 125.14,-601.67 179.14,-601.67 179.14,-637.67"/>
</g>
<!-- &#45;5147639951402654799&#45;&gt;&#45;617926743591804607 -->
<g id="edge6" class="edge">
<title>&#45;5147639951402654799&#45;&gt;&#45;617926743591804607</title>
<path fill="none" stroke="black" d="M152.14,-565.92C152.14,-574.27 152.14,-583.3 152.14,-591.49"/>
<polygon fill="black" stroke="black" points="148.64,-591.64 152.14,-601.64 155.64,-591.64 148.64,-591.64"/>
</g>
</g>
</svg>
